<svg xmlns="http://www.w3.org/2000/svg" xmlns:xlink="http://www.w3.org/1999/xlink" width="2600" zoomAndPan="magnify" viewBox="0 0 1950 675.000002" height="900" preserveAspectRatio="xMidYMid meet" version="1.2"><defs><clipPath id="088c72ee9b"><rect x="0" width="1098" y="0" height="666"/></clipPath><clipPath id="cc6206c9d6"><rect x="0" width="202" y="0" height="666"/></clipPath><clipPath id="cbbdffbb35"><rect x="0" width="459" y="0" height="666"/></clipPath></defs><g id="a2a11e1634"><g transform="matrix(1,0,0,1,167,4)"><g clip-path="url(#088c72ee9b)"><g style="fill:#000000;fill-opacity:1;"><g transform="translate(3.021557, 493.949649)"><path style="stroke:none" d="M 279.9375 -137.109375 C 279.9375 -129.492188 279.460938 -121.5625 278.515625 -113.3125 L 94.265625 -113.3125 C 95.535156 -96.800781 100.851562 -84.179688 110.21875 -75.453125 C 119.582031 -66.734375 131.085938 -62.375 144.734375 -62.375 C 165.046875 -62.375 179.171875 -70.941406 187.109375 -88.078125 L 273.75 -88.078125 C 269.3125 -70.617188 261.296875 -54.90625 249.703125 -40.9375 C 238.117188 -26.976562 223.597656 -16.03125 206.140625 -8.09375 C 188.691406 -0.15625 169.175781 3.8125 147.59375 3.8125 C 121.5625 3.8125 98.390625 -1.738281 78.078125 -12.84375 C 57.765625 -23.957031 41.894531 -39.828125 30.46875 -60.453125 C 19.039062 -81.085938 13.328125 -105.210938 13.328125 -132.828125 C 13.328125 -160.441406 18.960938 -184.5625 30.234375 -205.1875 C 41.503906 -225.820312 57.296875 -241.691406 77.609375 -252.796875 C 97.921875 -263.910156 121.25 -269.46875 147.59375 -269.46875 C 173.300781 -269.46875 196.148438 -264.070312 216.140625 -253.28125 C 236.140625 -242.488281 251.769531 -227.09375 263.03125 -207.09375 C 274.300781 -187.101562 279.9375 -163.773438 279.9375 -137.109375 Z M 196.625 -158.546875 C 196.625 -172.503906 191.863281 -183.609375 182.34375 -191.859375 C 172.820312 -200.117188 160.921875 -204.25 146.640625 -204.25 C 132.992188 -204.25 121.488281 -200.28125 112.125 -192.34375 C 102.757812 -184.40625 96.96875 -173.140625 94.75 -158.546875 Z M 196.625 -158.546875 "/></g></g><g style="fill:#000000;fill-opacity:1;"><g transform="translate(355.803849, 493.949649)"><path style="stroke:none" d="M 149.015625 -76.171875 L 206.625 -265.65625 L 293.28125 -265.65625 L 199 0 L 98.546875 0 L 4.28125 -265.65625 L 91.40625 -265.65625 Z M 149.015625 -76.171875 "/></g></g><g style="fill:#000000;fill-opacity:1;"><g transform="translate(713.346896, 493.949649)"><path style="stroke:none" d="M 13.328125 -133.3125 C 13.328125 -160.601562 18.484375 -184.5625 28.796875 -205.1875 C 39.117188 -225.820312 53.164062 -241.691406 70.9375 -252.796875 C 88.707031 -263.910156 108.546875 -269.46875 130.453125 -269.46875 C 149.179688 -269.46875 165.601562 -265.65625 179.71875 -258.03125 C 193.84375 -250.414062 204.71875 -240.421875 212.34375 -228.046875 L 212.34375 -265.65625 L 293.75 -265.65625 L 293.75 0 L 212.34375 0 L 212.34375 -37.609375 C 204.40625 -25.234375 193.375 -15.234375 179.25 -7.609375 C 165.125 0.00390625 148.695312 3.8125 129.96875 3.8125 C 108.382812 3.8125 88.707031 -1.820312 70.9375 -13.09375 C 53.164062 -24.363281 39.117188 -40.390625 28.796875 -61.171875 C 18.484375 -81.960938 13.328125 -106.007812 13.328125 -133.3125 Z M 212.34375 -132.828125 C 212.34375 -153.140625 206.707031 -169.164062 195.4375 -180.90625 C 184.164062 -192.65625 170.4375 -198.53125 154.25 -198.53125 C 138.0625 -198.53125 124.332031 -192.738281 113.0625 -181.15625 C 101.800781 -169.570312 96.171875 -153.625 96.171875 -133.3125 C 96.171875 -113 101.800781 -96.890625 113.0625 -84.984375 C 124.332031 -73.078125 138.0625 -67.125 154.25 -67.125 C 170.4375 -67.125 184.164062 -72.992188 195.4375 -84.734375 C 206.707031 -96.484375 212.34375 -112.515625 212.34375 -132.828125 Z M 212.34375 -132.828125 "/></g></g></g></g><g transform="matrix(1,0,0,1,1244,4)"><g clip-path="url(#cc6206c9d6)"><g style="fill:#1ae298;fill-opacity:1;"><g transform="translate(0.664089, 492.255114)"><path style="stroke:none" d="M 110.9375 -352.3125 L 110.9375 0 L 29.515625 0 L 29.515625 -352.3125 Z M 110.9375 -352.3125 "/></g></g></g></g><g transform="matrix(1,0,0,1,1462,4)"><g clip-path="url(#cbbdffbb35)"><g style="fill:#737373;fill-opacity:1;"><g transform="translate(1.729263, 493.949649)"><path style="stroke:none" d="M 70.46875 -293.28125 C 56.175781 -293.28125 44.507812 -297.484375 35.46875 -305.890625 C 26.425781 -314.296875 21.90625 -324.691406 21.90625 -337.078125 C 21.90625 -349.773438 26.425781 -360.328125 35.46875 -368.734375 C 44.507812 -377.140625 56.175781 -381.34375 70.46875 -381.34375 C 84.425781 -381.34375 95.925781 -377.140625 104.96875 -368.734375 C 114.019531 -360.328125 118.546875 -349.773438 118.546875 -337.078125 C 118.546875 -324.691406 114.019531 -314.296875 104.96875 -305.890625 C 95.925781 -297.484375 84.425781 -293.28125 70.46875 -293.28125 Z M 110.9375 -265.65625 L 110.9375 0 L 29.515625 0 L 29.515625 -265.65625 Z M 110.9375 -265.65625 "/></g></g><g style="fill:#737373;fill-opacity:1;"><g transform="translate(201.689615, 493.949649)"><path style="stroke:none" d="M 177.578125 -69.03125 L 177.578125 0 L 136.15625 0 C 106.644531 0 83.632812 -7.21875 67.125 -21.65625 C 50.625 -36.101562 42.375 -59.671875 42.375 -92.359375 L 42.375 -198.0625 L 10 -198.0625 L 10 -265.65625 L 42.375 -265.65625 L 42.375 -330.40625 L 123.78125 -330.40625 L 123.78125 -265.65625 L 177.109375 -265.65625 L 177.109375 -198.0625 L 123.78125 -198.0625 L 123.78125 -91.40625 C 123.78125 -83.46875 125.679688 -77.753906 129.484375 -74.265625 C 133.296875 -70.773438 139.648438 -69.03125 148.546875 -69.03125 Z M 177.578125 -69.03125 "/></g></g></g></g></g></svg>